<svg xmlns="http://www.w3.org/2000/svg" viewBox="0 0 884.53 403.17"><defs><style>.cls-1{fill:#5fb8e8;}.cls-2{fill:#f39200;}.cls-3{fill:#f9b233;}</style></defs><g id="Title"><text x="164.53" y="-63"/></g><g id="Logo_Mark" data-name="Logo Mark"><path id="Background" class="cls-1" d="M705.76,320.11l-13,1.83.91-13a12.49,12.49,0,0,0-14.21-13.24l-13.13,1.84.91-13A12.5,12.5,0,0,0,653,271.29L537.2,287.57a31.24,31.24,0,0,0-26.81,28.76l-6.37,91a9.38,9.38,0,0,0,10.66,9.93l17-2.38-1.18,16.86a9.37,9.37,0,0,0,10.65,9.94l16.83-2.37-1.18,16.84a9.38,9.38,0,0,0,10.66,9.93l124.64-17.52a12.53,12.53,0,0,1,10.22,3.2l8.85,8.18L720,333.36A12.5,12.5,0,0,0,705.76,320.11Zm-47.37,91-8.85-8.19a12.5,12.5,0,0,0-10.22-3.18l-79.41,11.15,3.2-45.75a31.26,31.26,0,0,1,26.82-28.75l74.41-10.45Z" transform="translate(164.53 -63)"/><path class="cls-2" d="M667.23,284.53l-.9,13L563.63,312a31.25,31.25,0,0,0-26.82,28.75l-5.18,74.13-17,2.38A9.36,9.36,0,0,1,504,407.31l6.35-91a31.24,31.24,0,0,1,26.82-28.75L653,271.29A12.49,12.49,0,0,1,667.23,284.53Z" transform="translate(164.53 -63)"/><path class="cls-3" d="M666.33,297.54l-2,28.4-74.41,10.45a31.26,31.26,0,0,0-26.82,28.75l-3.2,45.75-28.28,4,5.18-74.13A31.25,31.25,0,0,1,563.63,312Z" transform="translate(164.53 -63)"/><path class="cls-2" d="M559.91,410.89l-2,28.41-16.82,2.36a9.36,9.36,0,0,1-10.66-9.93l1.18-16.86Z" transform="translate(164.53 -63)"/><path class="cls-2" d="M693.66,308.94l-.91,13-28.41,4,2-28.4,13.13-1.84A12.5,12.5,0,0,1,693.66,308.94Z" transform="translate(164.53 -63)"/><path class="cls-3" d="M692.75,321.94l-7.93,113.58L676,427.35a12.48,12.48,0,0,0-10.21-3.2L557.93,439.3l2-28.41,79.41-11.15a12.5,12.5,0,0,1,10.22,3.18l8.85,8.19,6-85.17Z" transform="translate(164.53 -63)"/><path class="cls-2" d="M720,333.36l-8.84,126.57-8.85-8.18a12.5,12.5,0,0,0-10.22-3.2L567.41,466.07a9.36,9.36,0,0,1-10.65-9.93l1.17-16.84,107.82-15.15a12.48,12.48,0,0,1,10.21,3.2l8.86,8.17,7.93-113.58,13-1.83A12.48,12.48,0,0,1,720,333.36Z" transform="translate(164.53 -63)"/></g></svg>