<svg xmlns="http://www.w3.org/2000/svg" viewBox="0 0 553.01 557.32"><defs><style>.a,.b{isolation:isolate;fill:#fff;font-family:ArialMT, Arial;}.a{font-size:231.52px;}.b{font-size:347.28px;}.c{fill:#fde700;}.d{fill:#f6b600;}.e{fill:#ee8c00;}.f{fill:#f6b400;}.g{fill:#e96d07;}.h{fill:#1d1d1b;}</style></defs><text class="a" transform="translate(107.82 362.78)">RE</text><text class="b" transform="translate(362.03 362.78)">:</text><path class="c" d="M569,230.78c16.68-36.81,5.32-83.87-34.12-106.65L406.06,49.75a212.21,212.21,0,0,0-212.14,0L65.08,124.13C25.64,146.91,14.28,194,31,230.78A84.28,84.28,0,0,0,31,300a84.3,84.3,0,0,0,0,69.22C14.28,406,25.64,453.08,65.08,475.86l128.84,74.39a212.21,212.21,0,0,0,212.14,0L534.9,475.86C574.34,453.09,585.7,406,569,369.21A84.3,84.3,0,0,0,569,300,84.28,84.28,0,0,0,569,230.78Z" transform="translate(-23.5 -21.34)"/><path class="c" d="M534.88,475.84,406.07,550.25a212.3,212.3,0,0,1-212.16,0L65.1,475.84C25.64,453.07,14.26,406,30.94,369.21A82.43,82.43,0,0,0,65.1,406.63L193.91,481a212.35,212.35,0,0,0,212.16,0l128.81-74.41A82.32,82.32,0,0,0,569,369.21C585.73,406,574.34,453.07,534.88,475.84Z" transform="translate(-23.5 -21.34)"/><path class="d" d="M569,369.21a82.32,82.32,0,0,1-34.16,37.42L406.07,481a212.35,212.35,0,0,1-212.16,0L65.1,406.63a82.43,82.43,0,0,1-34.16-37.42,81.7,81.7,0,0,1,29.66-34.6c1.45,1,2.94,1.91,4.5,2.8l128.81,74.42a212.4,212.4,0,0,0,212.16,0l128.81-74.42c1.56-.89,3-1.83,4.5-2.8A81.44,81.44,0,0,1,569,369.21Z" transform="translate(-23.5 -21.34)"/><path class="c" d="M60.6,334.6a81.79,81.79,0,0,0-29.66,34.61,84.14,84.14,0,0,1,0-69.22A81.54,81.54,0,0,0,60.6,334.6Z" transform="translate(-23.5 -21.34)"/><path class="c" d="M569,369.21a81.44,81.44,0,0,0-29.66-34.6A81.52,81.52,0,0,0,569,300,84,84,0,0,1,569,369.21Z" transform="translate(-23.5 -21.34)"/><path class="c" d="M569,300a81.49,81.49,0,0,1-29.66,34.62c-1.45-1-2.94-1.9-4.5-2.8L479.82,300l55.06-31.8c1.56-.9,3-1.84,4.5-2.8A81.41,81.41,0,0,1,569,300Z" transform="translate(-23.5 -21.34)"/><path class="e" d="M539.38,334.6c-1.45,1-2.94,1.91-4.5,2.81L406.07,411.82a212.35,212.35,0,0,1-212.16,0L65.1,337.41c-1.56-.9-3-1.84-4.5-2.81,1.45-1,2.94-1.9,4.5-2.8L120.16,300l73.75,42.62a212.4,212.4,0,0,0,212.16,0L479.82,300l55.06,31.81C536.49,332.7,537.93,333.63,539.38,334.6Z" transform="translate(-23.5 -21.34)"/><path class="f" d="M120.16,300,65.1,331.8c-1.56.9-3,1.83-4.5,2.8A81.54,81.54,0,0,1,30.94,300a81.69,81.69,0,0,1,29.66-34.6c1.45,1,2.94,1.9,4.5,2.8Z" transform="translate(-23.5 -21.34)"/><path class="c" d="M60.6,265.39A81.69,81.69,0,0,0,30.94,300a84.12,84.12,0,0,1,0-69.21A81.67,81.67,0,0,0,60.6,265.39Z" transform="translate(-23.5 -21.34)"/><path class="c" d="M569,300a81.5,81.5,0,0,0-29.66-34.6A81.41,81.41,0,0,0,569,230.78,84,84,0,0,1,569,300Z" transform="translate(-23.5 -21.34)"/><path class="d" d="M569,300a81.49,81.49,0,0,1-29.66,34.62c-1.45-1-2.94-1.9-4.5-2.8L479.82,300l55.06-31.8c1.56-.9,3-1.84,4.5-2.8A81.41,81.41,0,0,1,569,300Z" transform="translate(-23.5 -21.34)"/><path class="c" d="M569,230.78a82.44,82.44,0,0,0-34.16-37.45L406.07,119a212.4,212.4,0,0,0-212.16,0L65.1,193.33a82.5,82.5,0,0,0-34.16,37.45C14.26,194,25.64,146.92,65.1,124.14l128.81-74.4a212.35,212.35,0,0,1,212.16,0l128.81,74.4C574.34,146.92,585.73,194,569,230.78Z" transform="translate(-23.5 -21.34)"/><path class="d" d="M569,230.78a81.41,81.41,0,0,1-29.66,34.61c-1.45-1-2.94-1.91-4.5-2.81L406.07,188.17a212.4,212.4,0,0,0-212.16,0L65.1,262.58c-1.56.9-3,1.84-4.5,2.81a81.67,81.67,0,0,1-29.66-34.61A82.5,82.5,0,0,1,65.1,193.33L193.91,119a212.4,212.4,0,0,1,212.16,0l128.81,74.38A82.44,82.44,0,0,1,569,230.78Z" transform="translate(-23.5 -21.34)"/><path class="e" d="M539.38,265.39c-1.45,1-2.94,1.9-4.5,2.8L479.82,300l-73.75-42.6a212.4,212.4,0,0,0-212.16,0L120.16,300,65.1,268.19c-1.56-.9-3-1.84-4.5-2.8,1.45-1,2.94-1.91,4.5-2.81l128.81-74.41a212.4,212.4,0,0,1,212.16,0l128.81,74.41C536.49,263.48,537.93,264.42,539.38,265.39Z" transform="translate(-23.5 -21.34)"/><path class="g" d="M479.82,300l-73.75,42.62a212.4,212.4,0,0,1-212.16,0L120.16,300l73.75-42.6a212.4,212.4,0,0,1,212.16,0Z" transform="translate(-23.5 -21.34)"/><path class="h" d="M440.61,172.6l13.51-7.54a13.37,13.37,0,0,0,0-23.54L440.73,134a29.2,29.2,0,0,0-28.31,0L399,141.52a13.38,13.38,0,0,0,0,23.54l13.52,7.54A28.9,28.9,0,0,0,440.61,172.6Z" transform="translate(-23.5 -21.34)"/><path class="h" d="M371.24,131.75l13.54-7.24c9.63-5.15,9.63-18,0-23.16L371.24,94.1a30.59,30.59,0,0,0-28.57,0l-13.54,7.23c-9.62,5.14-9.62,18,0,23.16l13.54,7.24A30.51,30.51,0,0,0,371.24,131.75Z" transform="translate(-23.5 -21.34)"/><path class="h" d="M139.26,220.48l36.92-21.25c21-12.09,47-17.85,73.88-2.26,26.05,15.1,18.83,31.71-2.18,43.81l-11.11,6.39,36.18,21L247.14,283Zm84.23,8.25c10.2-5.87,10.63-11.87,1.33-17.25s-17.68-4-27.89,1.87l-9.3,5.35,26.55,15.39Zm12.25,10.4-1.51-21,94.23,18-28.81,16.59Z" transform="translate(-23.5 -21.34)"/><path class="h" d="M233.81,166.06l63-36.28,23.9,13.85-37.22,21.42,17,9.81,31.82-18.31,23.9,13.84-31.82,18.32,19.25,11.15,38.73-22.28,23.89,13.85-64.57,37.14Z" transform="translate(-23.5 -21.34)"/></svg>