<svg xmlns="http://www.w3.org/2000/svg" viewBox="0 0 553 557.33"><defs><style>.a,.b{isolation:isolate;fill:#fff;font-family:ArialMT, Arial;}.a{font-size:231.52px;}.b{font-size:347.28px;}.c{fill:#fde700;}.d{fill:#f6b600;}.e{fill:#ee8c00;}.f{fill:#f6b400;}.g{fill:#e96d07;}.h{fill:#1d1d1b;}</style></defs><text class="a" transform="translate(107.82 362.78)">RE</text><text class="b" transform="translate(362.03 362.78)">:</text><path class="c" d="M545.53,209.45c16.68-36.81,5.32-83.87-34.12-106.65L382.57,28.42a212.17,212.17,0,0,0-212.14,0L41.59,102.8C2.15,125.58-9.21,172.64,7.47,209.45a84.28,84.28,0,0,0,0,69.21,84.3,84.3,0,0,0,0,69.22c-16.68,36.8-5.32,83.87,34.12,106.64l128.84,74.39a212.17,212.17,0,0,0,212.14,0l128.84-74.39c39.44-22.77,50.8-69.84,34.12-106.64a84.3,84.3,0,0,0,0-69.22A84.28,84.28,0,0,0,545.53,209.45Z"/><path class="c" d="M511.39,454.51,382.58,528.92a212.3,212.3,0,0,1-212.16,0L41.61,454.51C2.15,431.74-9.23,384.67,7.45,347.88A82.46,82.46,0,0,0,41.61,385.3l128.81,74.41a212.35,212.35,0,0,0,212.16,0L511.39,385.3a82.46,82.46,0,0,0,34.16-37.42C562.24,384.67,550.85,431.74,511.39,454.51Z"/><path class="d" d="M545.55,347.88a82.46,82.46,0,0,1-34.16,37.42L382.58,459.71a212.35,212.35,0,0,1-212.16,0L41.61,385.3A82.46,82.46,0,0,1,7.45,347.88a81.66,81.66,0,0,1,29.66-34.61c1.45,1,2.94,1.91,4.5,2.81l128.81,74.41a212.35,212.35,0,0,0,212.16,0l128.81-74.41c1.56-.9,3.05-1.84,4.5-2.81A81.59,81.59,0,0,1,545.55,347.88Z"/><path class="c" d="M37.11,313.27A81.66,81.66,0,0,0,7.45,347.88a84.14,84.14,0,0,1,0-69.22A81.55,81.55,0,0,0,37.11,313.27Z"/><path class="c" d="M545.55,347.88a81.59,81.59,0,0,0-29.66-34.61,81.48,81.48,0,0,0,29.66-34.61A84.07,84.07,0,0,1,545.55,347.88Z"/><path class="c" d="M545.55,278.66a81.48,81.48,0,0,1-29.66,34.61c-1.45-1-2.94-1.9-4.5-2.8l-55.06-31.81,55.06-31.8c1.56-.9,3.05-1.84,4.5-2.8A81.51,81.51,0,0,1,545.55,278.66Z"/><path class="e" d="M515.89,313.27c-1.45,1-2.94,1.91-4.5,2.81L382.58,390.49a212.35,212.35,0,0,1-212.16,0L41.61,316.08c-1.56-.9-3-1.84-4.5-2.81,1.45-1,2.94-1.9,4.5-2.8l55.06-31.81,73.75,42.61a212.35,212.35,0,0,0,212.16,0l73.75-42.61,55.06,31.81C513,311.37,514.44,312.3,515.89,313.27Z"/><path class="f" d="M96.67,278.66,41.61,310.47c-1.56.9-3,1.83-4.5,2.8A81.55,81.55,0,0,1,7.45,278.66a81.58,81.58,0,0,1,29.66-34.6c1.45,1,2.94,1.9,4.5,2.8Z"/><path class="c" d="M37.11,244.06a81.58,81.58,0,0,0-29.66,34.6,84.12,84.12,0,0,1,0-69.21A81.66,81.66,0,0,0,37.11,244.06Z"/><path class="c" d="M545.55,278.66a81.51,81.51,0,0,0-29.66-34.6,81.59,81.59,0,0,0,29.66-34.61A84,84,0,0,1,545.55,278.66Z"/><path class="d" d="M545.55,278.66a81.48,81.48,0,0,1-29.66,34.61c-1.45-1-2.94-1.9-4.5-2.8l-55.06-31.81,55.06-31.8c1.56-.9,3.05-1.84,4.5-2.8A81.51,81.51,0,0,1,545.55,278.66Z"/><path class="c" d="M545.55,209.45A82.41,82.41,0,0,0,511.39,172L382.58,97.62a212.35,212.35,0,0,0-212.16,0L41.61,172A82.41,82.41,0,0,0,7.45,209.45c-16.68-36.79-5.3-83.86,34.16-106.64l128.81-74.4a212.3,212.3,0,0,1,212.16,0l128.81,74.4C550.85,125.59,562.24,172.66,545.55,209.45Z"/><path class="d" d="M545.55,209.45a81.59,81.59,0,0,1-29.66,34.61c-1.45-1-2.94-1.91-4.5-2.81L382.58,166.84a212.35,212.35,0,0,0-212.16,0L41.61,241.25c-1.56.9-3,1.84-4.5,2.81A81.66,81.66,0,0,1,7.45,209.45,82.41,82.41,0,0,1,41.61,172L170.42,97.62a212.35,212.35,0,0,1,212.16,0L511.39,172A82.41,82.41,0,0,1,545.55,209.45Z"/><path class="e" d="M515.89,244.06c-1.45,1-2.94,1.9-4.5,2.8l-55.06,31.8-73.75-42.6a212.35,212.35,0,0,0-212.16,0l-73.75,42.6-55.06-31.8c-1.56-.9-3-1.84-4.5-2.8,1.45-1,2.94-1.91,4.5-2.81l128.81-74.41a212.35,212.35,0,0,1,212.16,0l128.81,74.41C513,242.15,514.44,243.09,515.89,244.06Z"/><path class="g" d="M456.33,278.66l-73.75,42.61a212.35,212.35,0,0,1-212.16,0L96.67,278.66l73.75-42.6a212.35,212.35,0,0,1,212.16,0Z"/><path class="h" d="M417.12,151.27l13.51-7.54a13.37,13.37,0,0,0,0-23.54l-13.39-7.48a29.15,29.15,0,0,0-28.31,0l-13.4,7.48a13.38,13.38,0,0,0,0,23.54l13.52,7.54A28.9,28.9,0,0,0,417.12,151.27Z"/><path class="h" d="M347.75,110.42l13.54-7.24c9.63-5.15,9.63-18,0-23.16l-13.54-7.25a30.54,30.54,0,0,0-28.57,0L305.64,80c-9.62,5.14-9.62,18,0,23.16l13.54,7.24A30.54,30.54,0,0,0,347.75,110.42Z"/><path class="h" d="M115.77,199.15l36.92-21.25c21-12.09,47-17.85,73.88-2.26,26.05,15.1,18.83,31.71-2.18,43.81l-11.11,6.39,36.18,21-25.81,14.86ZM200,207.4c10.2-5.87,10.63-11.87,1.33-17.25s-17.68-4-27.89,1.87l-9.3,5.35,26.55,15.39Zm12.25,10.4-1.51-21,94.23,18-28.81,16.59Z"/><path class="h" d="M210.32,144.73l63-36.28,23.9,13.85L260,143.72,277,153.53l31.82-18.31,23.9,13.84-31.82,18.32,19.25,11.15,38.73-22.28,23.89,13.85L318.2,207.24Z"/></svg>